<?xml version="1.0" encoding="utf-8"?>
<!-- Generator: Adobe Illustrator 19.1.1, SVG Export Plug-In . SVG Version: 6.00 Build 0)  -->
<svg version="1.1"  xmlns="http://www.w3.org/2000/svg" xmlns:xlink="http://www.w3.org/1999/xlink" x="0px" y="0px"
	 viewBox="0 0 48 48" enable-background="new 0 0 48 48" xml:space="preserve">
<polygon fill="#FF9800" points="24,18 27,15 24,12 24,7 19,7 16,4 13,7 8,7 8,12 5,15 8,18 8,23 13,23 16,26 19,23 24,23 "/>
<path fill="#FFEB3B" d="M10,15c0,3.3,2.7,6,6,6s6-2.7,6-6s-2.7-6-6-6S10,11.7,10,15"/>
<path fill="#BBDEFB" d="M37.9,20.1C38,19.7,38,19.4,38,19c0-3.9-3.1-7-7-7c-2.8,0-5.2,1.6-6.3,4c-1-1.2-2.5-2-4.2-2
	c-3,0-5.5,2.5-5.5,5.5c0,0.2,0,0.3,0,0.5c0,0,0,0,0,0c-3.3,0-6,2.7-6,6s2.7,6,6,6c0,0,0.1,0,0.1,0c0,0,0,0,0,0H37c3.3,0,6-2.7,6-6
	C43,23,40.8,20.5,37.9,20.1z"/>
<path fill="#2196F3" d="M36.9,40.2c-1.1,1.1-3,1.1-4.1,0c-1.1-1.1-1.1-3,0-4.1C34,34.9,39,34,39,34S38.1,39,36.9,40.2z M28,38
	c0,0-5,0.9-6.2,2.1c-1.1,1.1-1.1,3,0,4.1c1.1,1.1,3,1.1,4.1,0C27.1,43,28,38,28,38z M18,34c0,0-5,0.9-6.2,2.1c-1.1,1.1-1.1,3,0,4.1
	c1.1,1.1,3,1.1,4.1,0C17.1,39,18,34,18,34z"/>
</svg>
